<svg width="182" height="72" viewBox="0 0 182 72" fill="none" xmlns="http://www.w3.org/2000/svg">
<circle cx="19" cy="38" r="3" fill="#E36666"/>
<circle cx="43" cy="62" r="3" fill="#E36666"/>
<circle cx="13" cy="62" r="3" fill="#E36666"/>
<circle cx="43" cy="11" r="3" fill="#E36666"/>
<circle cx="13" cy="11" r="3" fill="#E36666"/>
<circle cx="36" cy="21" r="4" fill="#E36666"/>
<circle cx="28" cy="4" r="4" fill="#E36666"/>
<circle cx="28" cy="68" r="4" fill="#E36666"/>
<circle cx="4" cy="53" r="4" fill="#E36666"/>
<circle cx="4" cy="37" r="4" fill="#E36666"/>
<circle cx="3" cy="21" r="3" fill="#E36666"/>
<circle cx="51" cy="20" r="3" fill="#E36666"/>
<circle cx="52" cy="37" r="4" fill="#E36666"/>
<circle cx="52" cy="53" r="4" fill="#E36666"/>
<circle cx="37" cy="52" r="3" fill="#E36666"/>
<circle cx="37" cy="38" r="3" fill="#E36666"/>
<circle cx="20" cy="52" r="3" fill="#E36666"/>
<circle cx="20" cy="21" r="4" fill="#E36666"/>
<path d="M71.7559 18.9902C72.7975 19.0228 73.709 19.0391 74.4902 19.0391C75.2715 19.0065 75.9062 18.9902 76.3945 18.9902H77.8105C78.1686 18.9577 78.6081 18.9414 79.1289 18.9414C79.5846 18.9414 80.138 18.9414 80.7891 18.9414C81.4401 18.9414 82.1888 18.9577 83.0352 18.9902C83.2956 19.9017 83.5885 20.7969 83.9141 21.6758C84.2721 22.5221 84.5814 23.2871 84.8418 23.9707C85.1673 24.7845 85.4928 25.5495 85.8184 26.2656C86.1439 26.9818 86.5345 27.8444 86.9902 28.8535C87.3809 29.6999 87.8529 30.7415 88.4062 31.9785C88.9596 33.1829 89.6107 34.5664 90.3594 36.1289C90.7174 35.1198 91.043 34.1921 91.3359 33.3457C91.6615 32.4993 91.9382 31.7669 92.166 31.1484C92.4264 30.4323 92.638 29.7812 92.8008 29.1953C92.9635 28.6094 93.1426 27.8932 93.3379 27.0469C93.5007 26.3307 93.6797 25.4681 93.875 24.459C94.1029 23.4499 94.3307 22.278 94.5586 20.9434C95.5026 20.9434 96.349 20.9434 97.0977 20.9434C97.8464 20.9434 98.4974 20.9271 99.0508 20.8945C99.6693 20.8945 100.223 20.8783 100.711 20.8457C101.232 20.8457 101.932 20.8132 102.811 20.748C103.559 20.6829 104.552 20.6341 105.789 20.6016C107.059 20.5365 108.621 20.4551 110.477 20.3574C109.793 20.8457 109.24 21.334 108.816 21.8223C108.426 22.278 108.117 22.6849 107.889 23.043C107.628 23.4661 107.465 23.873 107.4 24.2637C107.335 24.5892 107.27 25.3379 107.205 26.5098C107.173 27.6816 107.124 29.0814 107.059 30.709C107.026 32.304 106.993 34.013 106.961 35.8359C106.961 37.6589 106.977 39.3841 107.01 41.0117C107.042 42.6393 107.091 44.0553 107.156 45.2598C107.254 46.4316 107.384 47.1803 107.547 47.5059C107.775 47.8965 108.084 48.3522 108.475 48.873C108.833 49.3288 109.288 49.8496 109.842 50.4355C110.428 51.0215 111.193 51.6725 112.137 52.3887C110.639 52.4538 109.386 52.5026 108.377 52.5352C107.4 52.5677 106.587 52.6003 105.936 52.6328C105.187 52.6654 104.585 52.6816 104.129 52.6816C103.641 52.6816 102.973 52.6979 102.127 52.7305C101.378 52.763 100.385 52.8118 99.1484 52.877C97.9115 52.9095 96.3164 52.9746 94.3633 53.0723C94.819 52.5514 95.2422 52.0306 95.6328 51.5098C96.0234 50.9889 96.349 50.5169 96.6094 50.0938C96.9349 49.6055 97.2116 49.1335 97.4395 48.6777C97.6673 48.0592 97.8464 46.9362 97.9766 45.3086C98.1068 43.9089 98.2044 41.9069 98.2695 39.3027C98.3346 36.666 98.3346 33.1341 98.2695 28.707C97.651 29.7161 97.0977 30.7253 96.6094 31.7344C96.1536 32.7109 95.7467 33.6061 95.3887 34.4199C94.998 35.3639 94.64 36.2754 94.3145 37.1543C93.9889 38.0658 93.6471 39.0749 93.2891 40.1816C92.9635 41.1257 92.5729 42.2487 92.1172 43.5508C91.694 44.8529 91.2057 46.2852 90.6523 47.8477L88.7969 47.9453C88.5365 46.6432 88.276 45.4714 88.0156 44.4297C87.7552 43.3555 87.4948 42.444 87.2344 41.6953C86.9414 40.8164 86.6484 40.0352 86.3555 39.3516C86.0299 38.668 85.6719 37.903 85.2812 37.0566C84.9232 36.3405 84.4837 35.4941 83.9629 34.5176C83.4746 33.541 82.9049 32.4505 82.2539 31.2461C81.9284 34.5664 81.7331 37.2682 81.668 39.3516C81.6029 41.4023 81.6029 42.9974 81.668 44.1367C81.7331 45.5039 81.8307 46.4967 81.9609 47.1152C82.1562 47.6686 82.4655 48.2871 82.8887 48.9707C83.2467 49.5566 83.735 50.2565 84.3535 51.0703C85.0046 51.8516 85.8346 52.7305 86.8438 53.707C86.1276 53.707 85.3789 53.707 84.5977 53.707C83.8164 53.707 83.1003 53.7233 82.4492 53.7559C81.668 53.7884 80.903 53.8047 80.1543 53.8047C79.373 53.8372 78.4616 53.8861 77.4199 53.9512C76.5085 54.0163 75.418 54.0814 74.1484 54.1465C72.8789 54.2116 71.4141 54.3255 69.7539 54.4883C70.4701 54.0326 71.056 53.5931 71.5117 53.1699C71.9674 52.7142 72.3255 52.3073 72.5859 51.9492C72.9115 51.526 73.1556 51.1029 73.3184 50.6797C73.416 50.4193 73.4974 49.8496 73.5625 48.9707C73.6602 48.0918 73.7415 47.0176 73.8066 45.748C73.9043 44.4785 73.9694 43.0625 74.002 41.5C74.0671 39.9375 74.1159 38.3587 74.1484 36.7637C74.2135 35.1361 74.2624 33.5573 74.2949 32.0273C74.3275 30.4648 74.3438 29.0651 74.3438 27.8281C74.3763 26.5586 74.3926 25.5007 74.3926 24.6543C74.3926 23.8079 74.3926 23.2708 74.3926 23.043C74.2949 22.5547 74.1484 22.0664 73.9531 21.5781C73.7904 21.1549 73.5299 20.7155 73.1719 20.2598C72.8138 19.804 72.3418 19.3809 71.7559 18.9902ZM109.402 20.6504C111.681 20.7155 113.569 20.7643 115.066 20.7969C116.596 20.7969 117.833 20.7969 118.777 20.7969H121.365H135.916C135.981 21.4479 136.03 22.0827 136.062 22.7012C136.128 23.2871 136.16 23.8079 136.16 24.2637C136.16 24.8171 136.144 25.3216 136.111 25.7773C136.079 26.2331 136.03 26.7214 135.965 27.2422C135.9 27.6979 135.835 28.1862 135.77 28.707C135.704 29.2279 135.59 29.765 135.428 30.3184C134.972 28.5605 134.354 27.2259 133.572 26.3145C132.824 25.403 132.059 24.7357 131.277 24.3125C130.366 23.8242 129.406 23.5638 128.396 23.5312C127.062 23.5964 126.02 23.7103 125.271 23.873C124.523 24.0358 123.937 24.2637 123.514 24.5566C123.09 24.8496 122.765 25.1914 122.537 25.582C122.342 25.9401 122.13 26.347 121.902 26.8027C121.707 27.1934 121.528 27.7956 121.365 28.6094C121.202 29.293 121.04 30.2207 120.877 31.3926C120.747 32.5645 120.6 34.0781 120.438 35.9336C121.316 35.6732 122.016 35.429 122.537 35.2012C123.09 34.9733 123.53 34.778 123.855 34.6152C124.214 34.4199 124.474 34.2409 124.637 34.0781C124.767 33.8828 124.962 33.5247 125.223 33.0039C125.418 32.5482 125.678 31.9297 126.004 31.1484C126.362 30.3672 126.785 29.293 127.273 27.9258C127.339 29.4232 127.371 30.6764 127.371 31.6855C127.371 32.6621 127.387 33.4596 127.42 34.0781C127.42 34.7943 127.436 35.3639 127.469 35.7871V37.6426C127.469 38.3262 127.469 39.2539 127.469 40.4258C127.501 41.5651 127.55 43.0137 127.615 44.7715C127.225 43.5671 126.867 42.623 126.541 41.9395C126.248 41.2233 125.988 40.6862 125.76 40.3281C125.499 39.9049 125.271 39.612 125.076 39.4492C124.848 39.3841 124.539 39.319 124.148 39.2539C123.79 39.2214 123.335 39.2051 122.781 39.2051C122.26 39.2051 121.593 39.2865 120.779 39.4492C120.682 41.2396 120.665 42.6882 120.73 43.7949C120.828 44.8691 120.958 45.6992 121.121 46.2852C121.284 46.9688 121.479 47.457 121.707 47.75C122 48.043 122.586 48.2871 123.465 48.4824C124.344 48.6452 125.337 48.7103 126.443 48.6777C127.583 48.6126 128.738 48.4173 129.91 48.0918C131.082 47.7663 132.124 47.2292 133.035 46.4805C133.719 45.862 134.451 45.0807 135.232 44.1367C135.883 43.3229 136.6 42.2975 137.381 41.0605C138.195 39.8236 138.992 38.3262 139.773 36.5684C139.643 38.0332 139.546 39.2539 139.48 40.2305C139.448 41.1745 139.399 41.9395 139.334 42.5254C139.269 43.209 139.22 43.7298 139.188 44.0879C139.188 44.4785 139.139 45.0319 139.041 45.748C138.976 46.3665 138.862 47.2129 138.699 48.2871C138.569 49.3288 138.39 50.6634 138.162 52.291C136.632 52.3236 135.184 52.3561 133.816 52.3887C132.449 52.3887 131.245 52.4049 130.203 52.4375C128.966 52.4701 127.827 52.5026 126.785 52.5352C125.711 52.5352 124.523 52.584 123.221 52.6816C122.081 52.7467 120.73 52.8444 119.168 52.9746C117.638 53.1048 115.945 53.2839 114.09 53.5117C114.253 51.2982 114.367 49.2148 114.432 47.2617C114.529 45.276 114.594 43.5345 114.627 42.0371C114.66 40.2793 114.66 38.6517 114.627 37.1543C114.79 33.4108 114.725 30.3835 114.432 28.0723C114.139 25.7611 113.797 24.2799 113.406 23.6289C113.211 23.401 112.934 23.1243 112.576 22.7988C112.283 22.5384 111.876 22.2292 111.355 21.8711C110.835 21.513 110.184 21.1061 109.402 20.6504ZM141.043 18.9902C142.085 19.0228 142.996 19.0391 143.777 19.0391C144.559 19.0065 145.193 18.9902 145.682 18.9902H147.098C147.456 18.9577 147.895 18.9414 148.416 18.9414C148.872 18.9414 149.425 18.9414 150.076 18.9414C150.727 18.9414 151.476 18.9577 152.322 18.9902C152.583 19.9017 152.876 20.7969 153.201 21.6758C153.559 22.5221 153.868 23.2871 154.129 23.9707C154.454 24.7845 154.78 25.5495 155.105 26.2656C155.431 26.9818 155.822 27.8444 156.277 28.8535C156.668 29.6999 157.14 30.7415 157.693 31.9785C158.247 33.1829 158.898 34.5664 159.646 36.1289C160.005 35.1198 160.33 34.1921 160.623 33.3457C160.949 32.4993 161.225 31.7669 161.453 31.1484C161.714 30.4323 161.925 29.7812 162.088 29.1953C162.251 28.6094 162.43 27.8932 162.625 27.0469C162.788 26.3307 162.967 25.4681 163.162 24.459C163.39 23.4499 163.618 22.278 163.846 20.9434C164.79 20.9434 165.636 20.9434 166.385 20.9434C167.133 20.9434 167.785 20.9271 168.338 20.8945C168.956 20.8945 169.51 20.8783 169.998 20.8457C170.519 20.8457 171.219 20.8132 172.098 20.748C172.846 20.6829 173.839 20.6341 175.076 20.6016C176.346 20.5365 177.908 20.4551 179.764 20.3574C179.08 20.8457 178.527 21.334 178.104 21.8223C177.713 22.278 177.404 22.6849 177.176 23.043C176.915 23.4661 176.753 23.873 176.688 24.2637C176.622 24.5892 176.557 25.3379 176.492 26.5098C176.46 27.6816 176.411 29.0814 176.346 30.709C176.313 32.304 176.281 34.013 176.248 35.8359C176.248 37.6589 176.264 39.3841 176.297 41.0117C176.329 42.6393 176.378 44.0553 176.443 45.2598C176.541 46.4316 176.671 47.1803 176.834 47.5059C177.062 47.8965 177.371 48.3522 177.762 48.873C178.12 49.3288 178.576 49.8496 179.129 50.4355C179.715 51.0215 180.48 51.6725 181.424 52.3887C179.926 52.4538 178.673 52.5026 177.664 52.5352C176.688 52.5677 175.874 52.6003 175.223 52.6328C174.474 52.6654 173.872 52.6816 173.416 52.6816C172.928 52.6816 172.26 52.6979 171.414 52.7305C170.665 52.763 169.673 52.8118 168.436 52.877C167.199 52.9095 165.604 52.9746 163.65 53.0723C164.106 52.5514 164.529 52.0306 164.92 51.5098C165.311 50.9889 165.636 50.5169 165.896 50.0938C166.222 49.6055 166.499 49.1335 166.727 48.6777C166.954 48.0592 167.133 46.9362 167.264 45.3086C167.394 43.9089 167.492 41.9069 167.557 39.3027C167.622 36.666 167.622 33.1341 167.557 28.707C166.938 29.7161 166.385 30.7253 165.896 31.7344C165.441 32.7109 165.034 33.6061 164.676 34.4199C164.285 35.3639 163.927 36.2754 163.602 37.1543C163.276 38.0658 162.934 39.0749 162.576 40.1816C162.251 41.1257 161.86 42.2487 161.404 43.5508C160.981 44.8529 160.493 46.2852 159.939 47.8477L158.084 47.9453C157.824 46.6432 157.563 45.4714 157.303 44.4297C157.042 43.3555 156.782 42.444 156.521 41.6953C156.229 40.8164 155.936 40.0352 155.643 39.3516C155.317 38.668 154.959 37.903 154.568 37.0566C154.21 36.3405 153.771 35.4941 153.25 34.5176C152.762 33.541 152.192 32.4505 151.541 31.2461C151.215 34.5664 151.02 37.2682 150.955 39.3516C150.89 41.4023 150.89 42.9974 150.955 44.1367C151.02 45.5039 151.118 46.4967 151.248 47.1152C151.443 47.6686 151.753 48.2871 152.176 48.9707C152.534 49.5566 153.022 50.2565 153.641 51.0703C154.292 51.8516 155.122 52.7305 156.131 53.707C155.415 53.707 154.666 53.707 153.885 53.707C153.104 53.707 152.387 53.7233 151.736 53.7559C150.955 53.7884 150.19 53.8047 149.441 53.8047C148.66 53.8372 147.749 53.8861 146.707 53.9512C145.796 54.0163 144.705 54.0814 143.436 54.1465C142.166 54.2116 140.701 54.3255 139.041 54.4883C139.757 54.0326 140.343 53.5931 140.799 53.1699C141.255 52.7142 141.613 52.3073 141.873 51.9492C142.199 51.526 142.443 51.1029 142.605 50.6797C142.703 50.4193 142.785 49.8496 142.85 48.9707C142.947 48.0918 143.029 47.0176 143.094 45.748C143.191 44.4785 143.257 43.0625 143.289 41.5C143.354 39.9375 143.403 38.3587 143.436 36.7637C143.501 35.1361 143.549 33.5573 143.582 32.0273C143.615 30.4648 143.631 29.0651 143.631 27.8281C143.663 26.5586 143.68 25.5007 143.68 24.6543C143.68 23.8079 143.68 23.2708 143.68 23.043C143.582 22.5547 143.436 22.0664 143.24 21.5781C143.077 21.1549 142.817 20.7155 142.459 20.2598C142.101 19.804 141.629 19.3809 141.043 18.9902Z" fill="#E36666"/>
</svg>
